<svg height="512pt" viewBox="0 -53 512 511" width="512pt" xmlns="http://www.w3.org/2000/svg"><path d="m391.03125 53.5625h-59.03125c-8.265625 0-14.96875 6.703125-14.96875 14.96875v18.0625c0 8.269531 6.703125 14.96875 14.96875 14.96875h59.03125c8.265625 0 14.96875-6.699219 14.96875-14.96875v-18.0625c0-8.265625-6.703125-14.96875-14.96875-14.96875zm0 0" fill="#f8a2aa"/><g fill="#8690a6"><path d="m285 69.5625h32.03125v32h-32.03125c-8.835938 0-16-7.164062-16-16s7.164062-16 16-16zm0 0"/><path d="m107.5 136.5625h96c13.253906 0 24 10.746094 24 24s-10.746094 24-24 24h-96c-13.253906 0-24-10.746094-24-24s10.746094-24 24-24zm0 0"/><path d="m480 346.527344c0 26.511718-21.492188 48-48 48s-48-21.488282-48-48c0-26.507813 21.492188-48 48-48s48 21.492187 48 48zm0 0"/></g><path d="m502 314.5h-141.71875c-6.96875 12.375-20.066406 20.03125-34.269531 20.03125h-316.011719v-7.558594c0-78.652344 63.757812-142.410156 142.40625-142.410156h54.933594c11.132812 0 20.160156 9.027344 20.160156 20.160156v89.808594h69.210938c18.070312 0 34.714843-9.820312 43.449218-25.636719 4.054688-7.335937 6.183594-15.574219 6.191406-23.957031l.148438-143.375h35.5l27.660156 124.984375h4.386719c48.574219 0 87.953125 39.378906 87.953125 87.953125zm0 0" fill="#ff6977"/><path d="m172 346.527344c0 26.511718-21.492188 48-48 48s-48-21.488282-48-48c0-26.507813 21.492188-48 48-48s48 21.492187 48 48zm0 0" fill="#8690a6"/><path d="m198.027344 334.527344c0-40.882813-33.140625-74.027344-74.027344-74.027344-17.234375 0-33.09375 5.890625-45.675781 15.765625-.003907.003906-.007813.007813-.011719.011719-17.257812 13.550781-28.339844 34.609375-28.339844 58.25zm0 0" fill="#f8a2aa"/><path d="m434.179688 174.378906h-20c-11.046876 0-20-8.953125-20-20 0-11.042968 8.953124-20 20-20h20zm0 0" fill="#00ccf2"/><path d="m208.53125 136.5625h-106.0625c-5.523438 0-10-4.476562-10-10v-106.0625c0-5.523438 4.476562-10 10-10h106.0625c5.523438 0 10 4.476562 10 10v106.0625c0 5.523438-4.476562 10-10 10zm0 0" fill="#ffcb7c"/><path d="m134.355469 10.5h42.023437v42.019531h-42.023437zm0 0" fill="#fff"/><path d="m218.53125 384.503906c-2.632812 0-5.210938 1.0625-7.070312 2.929688-1.859376 1.863281-2.929688 4.429687-2.929688 7.0625 0 2.640625 1.070312 5.21875 2.929688 7.078125 1.859374 1.859375 4.4375 2.929687 7.070312 2.929687 2.628906 0 5.207031-1.070312 7.070312-2.929687 1.859376-1.859375 2.929688-4.4375 2.929688-7.078125 0-2.632813-1.070312-5.199219-2.929688-7.0625-1.863281-1.867188-4.441406-2.929688-7.070312-2.929688zm0 0"/><path d="m417.707031 216.613281-7.1875-32.464843c1.203125.148437 2.421875.230468 3.660157.230468h20c5.523437 0 10-4.476562 10-10v-40c0-5.523437-4.476563-10-10-10h-20c-5.828126 0-11.269532 1.675782-15.878907 4.5625l-3.898437-17.613281c12.179687-1.652344 21.597656-12.109375 21.597656-24.734375v-18.0625c0-13.769531-11.199219-24.96875-24.96875-24.96875h-59.03125c-10.605469 0-19.683594 6.652344-23.296875 16h-23.703125c-14.335938 0-26 11.664062-26 26s11.664062 26 26 26h51.472656v20.152344c0 5.519531 4.476563 10 10 10 5.523438 0 10-4.480469 10-10v-20.152344h17.5l25.101563 113.417969-47.507813 84.617187c-5.191406 9.210938-14.980468 14.929688-25.554687 14.929688h-118.597657c-4.964843-41.632813-40.464843-74.027344-83.414062-74.027344-19.003906 0-36.933594 6.191406-51.851562 17.902344-.019532.011718-.039063.027344-.058594.042968-17.761719 13.96875-28.925782 34.019532-31.527344 56.082032h-20.539062c1.304687-71.886719 60.191406-129.964844 132.382812-129.964844h54.9375c5.597656 0 10.15625 4.554688 10.15625 10.15625v89.808594c0 5.523437 4.476562 10 10 10h69.210938c21.707031 0 41.710937-11.800782 52.203124-30.796875 4.855469-8.789063 7.429688-18.742188 7.4375-28.777344l.050782-33.226563c.007812-5.523437-4.464844-10.003906-9.988282-10.011718-.003906 0-.007812 0-.011718 0-5.515625 0-9.992188 4.464844-10 9.984375l-.050782 33.230469c-.003906 6.671874-1.714843 13.285156-4.941406 19.125-6.976562 12.628906-20.273437 20.472656-34.699218 20.472656h-59.210938v-79.808594c0-8.3125-3.382812-15.851562-8.839844-21.3125 5.488282-6.039062 8.839844-14.058594 8.839844-22.84375 0-9.929688-4.277344-18.875-11.085938-25.097656 1.34375-2.683594 2.117188-5.703125 2.117188-8.902344v-106.0625c0-11.027344-8.972656-20-20-20h-106.0625c-11.027344 0-20 8.972656-20 20v58h-42.378906c-5.523438 0-10 4.476562-10 10s4.476562 10 10 10h42.378906v28.0625h-72.46875c-5.523438 0-10 4.476562-10 10s4.476562 10 10 10h66.527344c-1.9375 4.273438-3.027344 9.011719-3.027344 14 0 11.671875 5.914062 21.988281 14.902344 28.113281-52.148438 24.230469-88.402344 77.105469-88.402344 138.296875v7.558594c0 5.523438 4.476562 10 10 10h56.199219c-.128907.644531-.199219 1.3125-.199219 2 0 14.511719 5.371094 27.785156 14.214844 37.96875h-40.125c-5.523438 0-10 4.476562-10 10s4.476562 10 10 10h82.753906c.386719.007812.769531.03125 1.15625.03125 31.980469 0 58-26.019531 58-58 0-.6875-.070312-1.355469-.199219-2h144.210938c15.746093 0 30.460937-7.546875 39.683593-20.03125h12.664063c-2.847656 6.929688-4.359375 14.398438-4.359375 22.03125 0 14.511719 5.371094 27.785156 14.214844 37.96875h-129.683594c-5.523438 0-10 4.476562-10 10s4.476562 10 10 10h172.3125c.386719.007812.769531.03125 1.15625.03125 31.980469 0 58-26.019531 58-58 0-7.632812-1.511719-15.101562-4.359375-22.03125h16.359375c5.523438 0 10-4.476562 10-10 0-52.785156-41.972656-95.953125-94.292969-97.886719zm-3.527343-72.234375h10v20h-10c-5.515626 0-10-4.484375-10-10 0-5.511718 4.484374-10 10-10zm-247.800782-123.878906v22.019531h-22.023437v-22.019531zm-63.910156 0h21.886719v32.019531c0 5.523438 4.480469 10 10 10h42.023437c5.523438 0 10-4.476562 10-10v-32.019531h22.152344l.015625 106.0625s-.007813 0-.015625 0h-106.0625zm5.03125 154.0625c-7.71875 0-14-6.28125-14-14s6.28125-14 14-14h96c7.71875 0 14 6.28125 14 14s-6.28125 14-14 14zm54.5 171.96875c0 20.824219-16.839844 37.78125-37.613281 37.988281-.128907-.003906-.257813-.019531-.386719-.019531h-1.152344c-20.421875-.613281-36.847656-17.402344-36.847656-37.96875 0-.6875-.070312-1.355469-.199219-2h76.398438c-.128907.644531-.199219 1.3125-.199219 2zm-101.257812-22c2.476562-15.886719 10.820312-30.238281 23.707031-40.359375.03125-.023437.058593-.046875.089843-.070313 11.351563-8.898437 24.996094-13.601562 39.460938-13.601562 31.90625 0 58.433594 23.457031 63.25 54.03125zm218.257812-238.96875c0-3.308594 2.691406-6 6-6h22.03125v7.03125c0 1.703125.171875 3.363281.496094 4.96875h-22.527344c-3.308594 0-6-2.691406-6-6zm67.472656 6h-14.472656c-2.738281 0-4.96875-2.226562-4.96875-4.96875v-18.0625c0-2.742188 2.230469-4.96875 4.96875-4.96875h59.03125c2.738281 0 4.96875 2.226562 4.96875 4.96875v18.0625c0 2.742188-2.230469 4.96875-4.96875 4.96875zm123.527344 254.96875c0 20.824219-16.839844 37.78125-37.613281 37.988281-.128907-.003906-.257813-.019531-.386719-.019531h-1.152344c-20.421875-.613281-36.847656-17.402344-36.847656-37.96875 0-7.945312 2.476562-15.625 7.039062-22.03125h61.921876c4.5625 6.40625 7.039062 14.085938 7.039062 22.03125zm-2.257812-42.03125h-90.378907l38.132813-67.921875c38.945312.71875 71.003906 30.113281 75.867187 67.921875zm0 0"/><path d="m346.472656 181.714844c5.523438 0 10-4.476563 10-10 0-5.523438-4.476562-10-10-10h-.035156c-5.523438 0-9.984375 4.476562-9.984375 10 0 5.523437 4.496094 10 10.019531 10zm0 0"/></svg>